<svg width="325" height="49" viewBox="0 0 325 49" fill="none" xmlns="http://www.w3.org/2000/svg">
<path d="M79.1152 39.7178H73.168V15.5596C73.168 13.8779 73.4961 12.4629 74.1523 11.3145C74.8223 10.1523 75.7588 9.27734 76.9619 8.68945C78.1787 8.08789 79.6211 7.78711 81.2891 7.78711C81.8359 7.78711 82.3623 7.82812 82.8682 7.91016C83.374 7.97852 83.8662 8.06738 84.3447 8.17676L84.2832 12.627C84.0234 12.5586 83.75 12.5107 83.4629 12.4834C83.1758 12.4561 82.8408 12.4424 82.458 12.4424C81.7471 12.4424 81.1387 12.5654 80.6328 12.8115C80.1406 13.0439 79.7646 13.3926 79.5049 13.8574C79.2451 14.3223 79.1152 14.8896 79.1152 15.5596V39.7178ZM83.5449 17.5283V21.7119H69.8662V17.5283H83.5449ZM85.6982 28.8486V28.418C85.6982 26.791 85.9307 25.2939 86.3955 23.9268C86.8604 22.5459 87.5371 21.3496 88.4258 20.3379C89.3145 19.3262 90.4082 18.54 91.707 17.9795C93.0059 17.4053 94.4961 17.1182 96.1777 17.1182C97.8594 17.1182 99.3564 17.4053 100.669 17.9795C101.981 18.54 103.082 19.3262 103.971 20.3379C104.873 21.3496 105.557 22.5459 106.021 23.9268C106.486 25.2939 106.719 26.791 106.719 28.418V28.8486C106.719 30.4619 106.486 31.959 106.021 33.3398C105.557 34.707 104.873 35.9033 103.971 36.9287C103.082 37.9404 101.988 38.7266 100.689 39.2871C99.3906 39.8477 97.9004 40.1279 96.2188 40.1279C94.5371 40.1279 93.04 39.8477 91.7275 39.2871C90.4287 38.7266 89.3281 37.9404 88.4258 36.9287C87.5371 35.9033 86.8604 34.707 86.3955 33.3398C85.9307 31.959 85.6982 30.4619 85.6982 28.8486ZM91.6045 28.418V28.8486C91.6045 29.7783 91.6865 30.6465 91.8506 31.4531C92.0146 32.2598 92.2744 32.9707 92.6299 33.5859C92.999 34.1875 93.4775 34.6592 94.0654 35.001C94.6533 35.3428 95.3711 35.5137 96.2188 35.5137C97.0391 35.5137 97.7432 35.3428 98.3311 35.001C98.9189 34.6592 99.3906 34.1875 99.7461 33.5859C100.102 32.9707 100.361 32.2598 100.525 31.4531C100.703 30.6465 100.792 29.7783 100.792 28.8486V28.418C100.792 27.5156 100.703 26.668 100.525 25.875C100.361 25.0684 100.095 24.3574 99.7256 23.7422C99.3701 23.1133 98.8984 22.6211 98.3105 22.2656C97.7227 21.9102 97.0117 21.7324 96.1777 21.7324C95.3438 21.7324 94.6328 21.9102 94.0449 22.2656C93.4707 22.6211 92.999 23.1133 92.6299 23.7422C92.2744 24.3574 92.0146 25.0684 91.8506 25.875C91.6865 26.668 91.6045 27.5156 91.6045 28.418ZM109.405 28.8486V28.418C109.405 26.791 109.638 25.2939 110.103 23.9268C110.567 22.5459 111.244 21.3496 112.133 20.3379C113.021 19.3262 114.115 18.54 115.414 17.9795C116.713 17.4053 118.203 17.1182 119.885 17.1182C121.566 17.1182 123.063 17.4053 124.376 17.9795C125.688 18.54 126.789 19.3262 127.678 20.3379C128.58 21.3496 129.264 22.5459 129.729 23.9268C130.193 25.2939 130.426 26.791 130.426 28.418V28.8486C130.426 30.4619 130.193 31.959 129.729 33.3398C129.264 34.707 128.58 35.9033 127.678 36.9287C126.789 37.9404 125.695 38.7266 124.396 39.2871C123.098 39.8477 121.607 40.1279 119.926 40.1279C118.244 40.1279 116.747 39.8477 115.435 39.2871C114.136 38.7266 113.035 37.9404 112.133 36.9287C111.244 35.9033 110.567 34.707 110.103 33.3398C109.638 31.959 109.405 30.4619 109.405 28.8486ZM115.312 28.418V28.8486C115.312 29.7783 115.394 30.6465 115.558 31.4531C115.722 32.2598 115.981 32.9707 116.337 33.5859C116.706 34.1875 117.185 34.6592 117.772 35.001C118.36 35.3428 119.078 35.5137 119.926 35.5137C120.746 35.5137 121.45 35.3428 122.038 35.001C122.626 34.6592 123.098 34.1875 123.453 33.5859C123.809 32.9707 124.068 32.2598 124.232 31.4531C124.41 30.6465 124.499 29.7783 124.499 28.8486V28.418C124.499 27.5156 124.41 26.668 124.232 25.875C124.068 25.0684 123.802 24.3574 123.433 23.7422C123.077 23.1133 122.605 22.6211 122.018 22.2656C121.43 21.9102 120.719 21.7324 119.885 21.7324C119.051 21.7324 118.34 21.9102 117.752 22.2656C117.178 22.6211 116.706 23.1133 116.337 23.7422C115.981 24.3574 115.722 25.0684 115.558 25.875C115.394 26.668 115.312 27.5156 115.312 28.418ZM147.16 34.8779V8.21777H153.107V39.7178H147.755L147.16 34.8779ZM133.133 28.8896V28.459C133.133 26.7637 133.324 25.2256 133.707 23.8447C134.09 22.4502 134.65 21.2539 135.389 20.2559C136.127 19.2578 137.036 18.4854 138.116 17.9385C139.196 17.3916 140.427 17.1182 141.808 17.1182C143.106 17.1182 144.241 17.3916 145.212 17.9385C146.196 18.4854 147.03 19.2646 147.714 20.2764C148.411 21.2744 148.972 22.457 149.396 23.8242C149.819 25.1777 150.127 26.6611 150.318 28.2744V29.2178C150.127 30.7627 149.819 32.1982 149.396 33.5244C148.972 34.8506 148.411 36.0127 147.714 37.0107C147.03 37.9951 146.196 38.7607 145.212 39.3076C144.228 39.8545 143.079 40.1279 141.767 40.1279C140.386 40.1279 139.155 39.8477 138.075 39.2871C137.009 38.7266 136.106 37.9404 135.368 36.9287C134.644 35.917 134.09 34.7275 133.707 33.3604C133.324 31.9932 133.133 30.5029 133.133 28.8896ZM139.039 28.459V28.8896C139.039 29.8057 139.107 30.6602 139.244 31.4531C139.395 32.2461 139.634 32.9502 139.962 33.5654C140.304 34.167 140.741 34.6387 141.274 34.9805C141.821 35.3086 142.484 35.4727 143.264 35.4727C144.275 35.4727 145.109 35.2471 145.766 34.7959C146.422 34.3311 146.921 33.6953 147.263 32.8887C147.618 32.082 147.823 31.1523 147.878 30.0996V27.4131C147.837 26.5518 147.714 25.7793 147.509 25.0957C147.317 24.3984 147.03 23.8037 146.647 23.3115C146.278 22.8193 145.813 22.4365 145.253 22.1631C144.706 21.8896 144.057 21.7529 143.305 21.7529C142.539 21.7529 141.883 21.9307 141.336 22.2861C140.789 22.6279 140.345 23.0996 140.003 23.7012C139.675 24.3027 139.429 25.0137 139.265 25.834C139.114 26.6406 139.039 27.5156 139.039 28.459ZM178.394 40.1279C176.671 40.1279 175.126 39.8545 173.759 39.3076C172.392 38.7471 171.229 37.9746 170.272 36.9902C169.329 36.0059 168.604 34.8643 168.099 33.5654C167.593 32.2529 167.34 30.8584 167.34 29.3818V28.5615C167.34 26.8799 167.579 25.3418 168.058 23.9473C168.536 22.5527 169.22 21.3428 170.108 20.3174C171.011 19.292 172.104 18.5059 173.39 17.959C174.675 17.3984 176.124 17.1182 177.737 17.1182C179.31 17.1182 180.704 17.3779 181.921 17.8975C183.138 18.417 184.156 19.1553 184.977 20.1123C185.811 21.0693 186.439 22.2178 186.863 23.5576C187.287 24.8838 187.499 26.3604 187.499 27.9873V30.4482H169.862V26.5107H181.695V26.0596C181.695 25.2393 181.545 24.5078 181.244 23.8652C180.957 23.209 180.52 22.6895 179.932 22.3066C179.344 21.9238 178.592 21.7324 177.676 21.7324C176.896 21.7324 176.227 21.9033 175.666 22.2451C175.105 22.5869 174.647 23.0654 174.292 23.6807C173.95 24.2959 173.69 25.0205 173.513 25.8545C173.349 26.6748 173.267 27.5771 173.267 28.5615V29.3818C173.267 30.2705 173.39 31.0908 173.636 31.8428C173.896 32.5947 174.258 33.2441 174.723 33.791C175.201 34.3379 175.775 34.7617 176.445 35.0625C177.129 35.3633 177.901 35.5137 178.763 35.5137C179.829 35.5137 180.82 35.3086 181.736 34.8984C182.666 34.4746 183.466 33.8389 184.136 32.9912L187.007 36.1084C186.542 36.7783 185.906 37.4209 185.1 38.0361C184.307 38.6514 183.35 39.1572 182.229 39.5537C181.107 39.9365 179.829 40.1279 178.394 40.1279ZM195.62 17.5283L199.291 24.2754L203.064 17.5283H209.36L203.085 28.377L209.647 39.7178H203.331L199.332 32.5811L195.333 39.7178H189.017L195.579 28.377L189.304 17.5283H195.62ZM218.138 21.7939V48.249H212.231V17.5283H217.707L218.138 21.7939ZM232.186 28.377V28.8076C232.186 30.4209 231.994 31.918 231.611 33.2988C231.242 34.6797 230.695 35.8828 229.971 36.9082C229.246 37.9199 228.344 38.7129 227.264 39.2871C226.197 39.8477 224.967 40.1279 223.572 40.1279C222.219 40.1279 221.043 39.8545 220.045 39.3076C219.047 38.7607 218.206 37.9951 217.522 37.0107C216.853 36.0127 216.312 34.8574 215.902 33.5449C215.492 32.2324 215.178 30.8242 214.959 29.3203V28.1924C215.178 26.5791 215.492 25.1025 215.902 23.7627C216.312 22.4092 216.853 21.2402 217.522 20.2559C218.206 19.2578 219.04 18.4854 220.024 17.9385C221.022 17.3916 222.191 17.1182 223.531 17.1182C224.939 17.1182 226.177 17.3848 227.243 17.918C228.323 18.4512 229.226 19.2168 229.95 20.2148C230.688 21.2129 231.242 22.4023 231.611 23.7832C231.994 25.1641 232.186 26.6953 232.186 28.377ZM226.259 28.8076V28.377C226.259 27.4336 226.177 26.5654 226.013 25.7725C225.862 24.9658 225.616 24.2617 225.274 23.6602C224.946 23.0586 224.509 22.5938 223.962 22.2656C223.429 21.9238 222.779 21.7529 222.014 21.7529C221.207 21.7529 220.517 21.8828 219.942 22.1426C219.382 22.4023 218.924 22.7783 218.568 23.2705C218.213 23.7627 217.946 24.3506 217.769 25.0342C217.591 25.7178 217.481 26.4902 217.44 27.3516V30.2021C217.509 31.2139 217.7 32.123 218.015 32.9297C218.329 33.7227 218.814 34.3516 219.471 34.8164C220.127 35.2812 220.988 35.5137 222.055 35.5137C222.834 35.5137 223.49 35.3428 224.023 35.001C224.557 34.6455 224.987 34.1602 225.315 33.5449C225.657 32.9297 225.896 32.2188 226.033 31.4121C226.184 30.6055 226.259 29.7373 226.259 28.8076ZM242.091 8.21777V39.7178H236.164V8.21777H242.091ZM246.028 28.8486V28.418C246.028 26.791 246.261 25.2939 246.726 23.9268C247.19 22.5459 247.867 21.3496 248.756 20.3379C249.645 19.3262 250.738 18.54 252.037 17.9795C253.336 17.4053 254.826 17.1182 256.508 17.1182C258.189 17.1182 259.687 17.4053 260.999 17.9795C262.312 18.54 263.412 19.3262 264.301 20.3379C265.203 21.3496 265.887 22.5459 266.352 23.9268C266.816 25.2939 267.049 26.791 267.049 28.418V28.8486C267.049 30.4619 266.816 31.959 266.352 33.3398C265.887 34.707 265.203 35.9033 264.301 36.9287C263.412 37.9404 262.318 38.7266 261.02 39.2871C259.721 39.8477 258.23 40.1279 256.549 40.1279C254.867 40.1279 253.37 39.8477 252.058 39.2871C250.759 38.7266 249.658 37.9404 248.756 36.9287C247.867 35.9033 247.19 34.707 246.726 33.3398C246.261 31.959 246.028 30.4619 246.028 28.8486ZM251.935 28.418V28.8486C251.935 29.7783 252.017 30.6465 252.181 31.4531C252.345 32.2598 252.604 32.9707 252.96 33.5859C253.329 34.1875 253.808 34.6592 254.396 35.001C254.983 35.3428 255.701 35.5137 256.549 35.5137C257.369 35.5137 258.073 35.3428 258.661 35.001C259.249 34.6592 259.721 34.1875 260.076 33.5859C260.432 32.9707 260.691 32.2598 260.855 31.4531C261.033 30.6465 261.122 29.7783 261.122 28.8486V28.418C261.122 27.5156 261.033 26.668 260.855 25.875C260.691 25.0684 260.425 24.3574 260.056 23.7422C259.7 23.1133 259.229 22.6211 258.641 22.2656C258.053 21.9102 257.342 21.7324 256.508 21.7324C255.674 21.7324 254.963 21.9102 254.375 22.2656C253.801 22.6211 253.329 23.1133 252.96 23.7422C252.604 24.3574 252.345 25.0684 252.181 25.875C252.017 26.668 251.935 27.5156 251.935 28.418ZM276.585 22.3682V39.7178H270.679V17.5283H276.236L276.585 22.3682ZM283.271 17.3848L283.168 22.8604C282.881 22.8193 282.532 22.7852 282.122 22.7578C281.726 22.7168 281.363 22.6963 281.035 22.6963C280.201 22.6963 279.477 22.8057 278.861 23.0244C278.26 23.2295 277.754 23.5371 277.344 23.9473C276.947 24.3574 276.646 24.8564 276.441 25.4443C276.25 26.0322 276.141 26.7021 276.113 27.4541L274.924 27.085C274.924 25.6494 275.067 24.3301 275.354 23.127C275.642 21.9102 276.059 20.8506 276.605 19.9482C277.166 19.0459 277.85 18.3486 278.656 17.8564C279.463 17.3643 280.386 17.1182 281.425 17.1182C281.753 17.1182 282.088 17.1455 282.43 17.2002C282.771 17.2412 283.052 17.3027 283.271 17.3848ZM295.862 40.1279C294.14 40.1279 292.595 39.8545 291.228 39.3076C289.86 38.7471 288.698 37.9746 287.741 36.9902C286.798 36.0059 286.073 34.8643 285.567 33.5654C285.062 32.2529 284.809 30.8584 284.809 29.3818V28.5615C284.809 26.8799 285.048 25.3418 285.526 23.9473C286.005 22.5527 286.688 21.3428 287.577 20.3174C288.479 19.292 289.573 18.5059 290.858 17.959C292.144 17.3984 293.593 17.1182 295.206 17.1182C296.778 17.1182 298.173 17.3779 299.39 17.8975C300.606 18.417 301.625 19.1553 302.445 20.1123C303.279 21.0693 303.908 22.2178 304.332 23.5576C304.756 24.8838 304.968 26.3604 304.968 27.9873V30.4482H287.331V26.5107H299.164V26.0596C299.164 25.2393 299.014 24.5078 298.713 23.8652C298.426 23.209 297.988 22.6895 297.4 22.3066C296.812 21.9238 296.061 21.7324 295.145 21.7324C294.365 21.7324 293.695 21.9033 293.135 22.2451C292.574 22.5869 292.116 23.0654 291.761 23.6807C291.419 24.2959 291.159 25.0205 290.981 25.8545C290.817 26.6748 290.735 27.5771 290.735 28.5615V29.3818C290.735 30.2705 290.858 31.0908 291.104 31.8428C291.364 32.5947 291.727 33.2441 292.191 33.791C292.67 34.3379 293.244 34.7617 293.914 35.0625C294.598 35.3633 295.37 35.5137 296.231 35.5137C297.298 35.5137 298.289 35.3086 299.205 34.8984C300.135 34.4746 300.935 33.8389 301.604 32.9912L304.476 36.1084C304.011 36.7783 303.375 37.4209 302.568 38.0361C301.775 38.6514 300.818 39.1572 299.697 39.5537C298.576 39.9365 297.298 40.1279 295.862 40.1279ZM314.237 22.3682V39.7178H308.331V17.5283H313.889L314.237 22.3682ZM320.923 17.3848L320.82 22.8604C320.533 22.8193 320.185 22.7852 319.774 22.7578C319.378 22.7168 319.016 22.6963 318.688 22.6963C317.854 22.6963 317.129 22.8057 316.514 23.0244C315.912 23.2295 315.406 23.5371 314.996 23.9473C314.6 24.3574 314.299 24.8564 314.094 25.4443C313.902 26.0322 313.793 26.7021 313.766 27.4541L312.576 27.085C312.576 25.6494 312.72 24.3301 313.007 23.127C313.294 21.9102 313.711 20.8506 314.258 19.9482C314.818 19.0459 315.502 18.3486 316.309 17.8564C317.115 17.3643 318.038 17.1182 319.077 17.1182C319.405 17.1182 319.74 17.1455 320.082 17.2002C320.424 17.2412 320.704 17.3027 320.923 17.3848Z" fill="white"/>
<path d="M25.5706 1.21655L46.9737 13.0919V36.8426L25.5706 48.7179L4.16752 36.8426V13.0919L25.5706 1.21655Z" fill="#065E7C"/>
</svg>
