<svg width="186" height="30" viewBox="0 0 186 30" fill="none" xmlns="http://www.w3.org/2000/svg">
<path d="M46.1733 22.1798H42.7749V8.37512C42.7749 7.41418 42.9624 6.60559 43.3374 5.94934C43.7202 5.28528 44.2554 4.78528 44.9429 4.44934C45.6382 4.10559 46.4624 3.93372 47.4155 3.93372C47.728 3.93372 48.0288 3.95715 48.3179 4.00403C48.6069 4.04309 48.8882 4.09387 49.1616 4.15637L49.1265 6.69934C48.978 6.66028 48.8218 6.63293 48.6577 6.61731C48.4937 6.60168 48.3022 6.59387 48.0835 6.59387C47.6772 6.59387 47.3296 6.66418 47.0405 6.80481C46.7593 6.93762 46.5444 7.13684 46.396 7.40247C46.2476 7.66809 46.1733 7.99231 46.1733 8.37512V22.1798ZM48.7046 9.50012V11.8907H40.8882V9.50012H48.7046ZM49.9351 15.9689V15.7228C49.9351 14.7931 50.0679 13.9376 50.3335 13.1564C50.5991 12.3673 50.9858 11.6837 51.4937 11.1056C52.0015 10.5275 52.6265 10.0782 53.3687 9.75793C54.1108 9.42981 54.9624 9.26575 55.9233 9.26575C56.8843 9.26575 57.7397 9.42981 58.4897 9.75793C59.2397 10.0782 59.8687 10.5275 60.3765 11.1056C60.8921 11.6837 61.2827 12.3673 61.5483 13.1564C61.814 13.9376 61.9468 14.7931 61.9468 15.7228V15.9689C61.9468 16.8907 61.814 17.7462 61.5483 18.5353C61.2827 19.3165 60.8921 20.0001 60.3765 20.5861C59.8687 21.1642 59.2437 21.6134 58.5015 21.9337C57.7593 22.254 56.9077 22.4142 55.9468 22.4142C54.9858 22.4142 54.1304 22.254 53.3804 21.9337C52.6382 21.6134 52.0093 21.1642 51.4937 20.5861C50.9858 20.0001 50.5991 19.3165 50.3335 18.5353C50.0679 17.7462 49.9351 16.8907 49.9351 15.9689ZM53.3101 15.7228V15.9689C53.3101 16.5001 53.3569 16.9962 53.4507 17.4572C53.5444 17.9181 53.6929 18.3243 53.896 18.6759C54.1069 19.0197 54.3804 19.2892 54.7163 19.4845C55.0522 19.6798 55.4624 19.7775 55.9468 19.7775C56.4155 19.7775 56.8179 19.6798 57.1538 19.4845C57.4897 19.2892 57.7593 19.0197 57.9624 18.6759C58.1655 18.3243 58.314 17.9181 58.4077 17.4572C58.5093 16.9962 58.5601 16.5001 58.5601 15.9689V15.7228C58.5601 15.2072 58.5093 14.7228 58.4077 14.2697C58.314 13.8087 58.1616 13.4025 57.9507 13.0509C57.7476 12.6915 57.478 12.4103 57.1421 12.2072C56.8062 12.004 56.3999 11.9025 55.9233 11.9025C55.4468 11.9025 55.0405 12.004 54.7046 12.2072C54.3765 12.4103 54.1069 12.6915 53.896 13.0509C53.6929 13.4025 53.5444 13.8087 53.4507 14.2697C53.3569 14.7228 53.3101 15.2072 53.3101 15.7228ZM63.4819 15.9689V15.7228C63.4819 14.7931 63.6147 13.9376 63.8804 13.1564C64.146 12.3673 64.5327 11.6837 65.0405 11.1056C65.5483 10.5275 66.1733 10.0782 66.9155 9.75793C67.6577 9.42981 68.5093 9.26575 69.4702 9.26575C70.4312 9.26575 71.2866 9.42981 72.0366 9.75793C72.7866 10.0782 73.4155 10.5275 73.9233 11.1056C74.439 11.6837 74.8296 12.3673 75.0952 13.1564C75.3608 13.9376 75.4937 14.7931 75.4937 15.7228V15.9689C75.4937 16.8907 75.3608 17.7462 75.0952 18.5353C74.8296 19.3165 74.439 20.0001 73.9233 20.5861C73.4155 21.1642 72.7905 21.6134 72.0483 21.9337C71.3062 22.254 70.4546 22.4142 69.4937 22.4142C68.5327 22.4142 67.6772 22.254 66.9272 21.9337C66.1851 21.6134 65.5562 21.1642 65.0405 20.5861C64.5327 20.0001 64.146 19.3165 63.8804 18.5353C63.6147 17.7462 63.4819 16.8907 63.4819 15.9689ZM66.8569 15.7228V15.9689C66.8569 16.5001 66.9038 16.9962 66.9976 17.4572C67.0913 17.9181 67.2397 18.3243 67.4429 18.6759C67.6538 19.0197 67.9272 19.2892 68.2632 19.4845C68.5991 19.6798 69.0093 19.7775 69.4937 19.7775C69.9624 19.7775 70.3647 19.6798 70.7007 19.4845C71.0366 19.2892 71.3062 19.0197 71.5093 18.6759C71.7124 18.3243 71.8608 17.9181 71.9546 17.4572C72.0562 16.9962 72.1069 16.5001 72.1069 15.9689V15.7228C72.1069 15.2072 72.0562 14.7228 71.9546 14.2697C71.8608 13.8087 71.7085 13.4025 71.4976 13.0509C71.2944 12.6915 71.0249 12.4103 70.689 12.2072C70.353 12.004 69.9468 11.9025 69.4702 11.9025C68.9937 11.9025 68.5874 12.004 68.2515 12.2072C67.9233 12.4103 67.6538 12.6915 67.4429 13.0509C67.2397 13.4025 67.0913 13.8087 66.9976 14.2697C66.9038 14.7228 66.8569 15.2072 66.8569 15.7228ZM85.0562 19.4142V4.17981H88.4546V22.1798H85.396L85.0562 19.4142ZM77.0405 15.9923V15.7462C77.0405 14.7775 77.1499 13.8986 77.3687 13.1095C77.5874 12.3126 77.9077 11.629 78.3296 11.0587C78.7515 10.4884 79.271 10.047 79.8882 9.7345C80.5054 9.422 81.2085 9.26575 81.9976 9.26575C82.7397 9.26575 83.3882 9.422 83.9429 9.7345C84.5054 10.047 84.9819 10.4923 85.3726 11.0704C85.771 11.6407 86.0913 12.3165 86.3335 13.0978C86.5757 13.8712 86.7515 14.7189 86.8608 15.6407V16.1798C86.7515 17.0626 86.5757 17.8829 86.3335 18.6407C86.0913 19.3986 85.771 20.0626 85.3726 20.6329C84.9819 21.1954 84.5054 21.6329 83.9429 21.9454C83.3804 22.2579 82.7241 22.4142 81.9741 22.4142C81.1851 22.4142 80.4819 22.254 79.8647 21.9337C79.2554 21.6134 78.7397 21.1642 78.3179 20.5861C77.9038 20.0079 77.5874 19.3282 77.3687 18.547C77.1499 17.7657 77.0405 16.9142 77.0405 15.9923ZM80.4155 15.7462V15.9923C80.4155 16.5157 80.4546 17.004 80.5327 17.4572C80.6187 17.9103 80.7554 18.3126 80.9429 18.6642C81.1382 19.0079 81.3882 19.2775 81.6929 19.4728C82.0054 19.6603 82.3843 19.754 82.8296 19.754C83.4077 19.754 83.8843 19.6251 84.2593 19.3673C84.6343 19.1017 84.9194 18.7384 85.1147 18.2775C85.3179 17.8165 85.4351 17.2853 85.4663 16.6837V15.1486C85.4429 14.6564 85.3726 14.215 85.2554 13.8243C85.146 13.4259 84.9819 13.0861 84.7632 12.8048C84.5522 12.5236 84.2866 12.3048 83.9663 12.1486C83.6538 11.9923 83.2827 11.9142 82.853 11.9142C82.4155 11.9142 82.0405 12.0157 81.728 12.2189C81.4155 12.4142 81.1616 12.6837 80.9663 13.0275C80.7788 13.3712 80.6382 13.7775 80.5444 14.2462C80.4585 14.7072 80.4155 15.2072 80.4155 15.7462ZM102.904 22.4142C101.919 22.4142 101.037 22.2579 100.255 21.9454C99.4741 21.6251 98.8101 21.1837 98.2632 20.6212C97.7241 20.0587 97.3101 19.4064 97.021 18.6642C96.7319 17.9142 96.5874 17.1173 96.5874 16.2736V15.8048C96.5874 14.8439 96.7241 13.965 96.9976 13.1681C97.271 12.3712 97.6616 11.6798 98.1694 11.0939C98.6851 10.5079 99.3101 10.0587 100.044 9.74622C100.779 9.4259 101.607 9.26575 102.529 9.26575C103.427 9.26575 104.224 9.41418 104.919 9.71106C105.615 10.0079 106.197 10.4298 106.666 10.9767C107.142 11.5236 107.501 12.1798 107.744 12.9454C107.986 13.7032 108.107 14.547 108.107 15.4767V16.8829H98.0288V14.6329H104.791V14.3751C104.791 13.9064 104.705 13.4884 104.533 13.1212C104.369 12.7462 104.119 12.4493 103.783 12.2306C103.447 12.0118 103.017 11.9025 102.494 11.9025C102.048 11.9025 101.666 12.0001 101.345 12.1954C101.025 12.3907 100.763 12.6642 100.56 13.0157C100.365 13.3673 100.216 13.7814 100.115 14.2579C100.021 14.7267 99.9741 15.2423 99.9741 15.8048V16.2736C99.9741 16.7814 100.044 17.2501 100.185 17.6798C100.333 18.1095 100.541 18.4806 100.806 18.7931C101.08 19.1056 101.408 19.3478 101.791 19.5197C102.181 19.6915 102.623 19.7775 103.115 19.7775C103.724 19.7775 104.291 19.6603 104.814 19.4259C105.345 19.1837 105.802 18.8204 106.185 18.3361L107.826 20.1173C107.56 20.5001 107.197 20.8673 106.736 21.2189C106.283 21.5704 105.736 21.8595 105.095 22.0861C104.455 22.3048 103.724 22.4142 102.904 22.4142ZM112.748 9.50012L114.845 13.3556L117.001 9.50012H120.599L117.013 15.6993L120.763 22.1798H117.154L114.869 18.1017L112.583 22.1798H108.974L112.724 15.6993L109.138 9.50012H112.748ZM125.615 11.9376V27.0548H122.24V9.50012H125.369L125.615 11.9376ZM133.642 15.6993V15.9454C133.642 16.8673 133.533 17.7228 133.314 18.5118C133.103 19.3009 132.791 19.9884 132.376 20.5743C131.962 21.1525 131.447 21.6056 130.83 21.9337C130.22 22.254 129.517 22.4142 128.72 22.4142C127.947 22.4142 127.275 22.2579 126.705 21.9454C126.134 21.6329 125.654 21.1954 125.263 20.6329C124.88 20.0626 124.572 19.4025 124.337 18.6525C124.103 17.9025 123.923 17.0978 123.798 16.2384V15.5939C123.923 14.672 124.103 13.8282 124.337 13.0626C124.572 12.2892 124.88 11.6212 125.263 11.0587C125.654 10.4884 126.13 10.047 126.693 9.7345C127.263 9.422 127.931 9.26575 128.697 9.26575C129.501 9.26575 130.208 9.41809 130.818 9.72278C131.435 10.0275 131.951 10.465 132.365 11.0353C132.787 11.6056 133.103 12.2853 133.314 13.0743C133.533 13.8634 133.642 14.7384 133.642 15.6993ZM130.255 15.9454V15.6993C130.255 15.1603 130.208 14.6642 130.115 14.2111C130.029 13.7501 129.888 13.3478 129.693 13.004C129.505 12.6603 129.255 12.3947 128.943 12.2072C128.638 12.0118 128.267 11.9142 127.83 11.9142C127.369 11.9142 126.974 11.9884 126.646 12.1368C126.326 12.2853 126.064 12.5001 125.861 12.7814C125.658 13.0626 125.505 13.3986 125.404 13.7892C125.302 14.1798 125.24 14.6212 125.216 15.1134V16.7423C125.255 17.3204 125.365 17.84 125.544 18.3009C125.724 18.754 126.001 19.1134 126.376 19.379C126.751 19.6447 127.244 19.7775 127.853 19.7775C128.298 19.7775 128.673 19.6798 128.978 19.4845C129.283 19.2814 129.529 19.004 129.716 18.6525C129.912 18.3009 130.048 17.8947 130.126 17.4337C130.212 16.9728 130.255 16.4767 130.255 15.9454ZM139.302 4.17981V22.1798H135.916V4.17981H139.302ZM141.552 15.9689V15.7228C141.552 14.7931 141.685 13.9376 141.951 13.1564C142.216 12.3673 142.603 11.6837 143.111 11.1056C143.619 10.5275 144.244 10.0782 144.986 9.75793C145.728 9.42981 146.58 9.26575 147.541 9.26575C148.501 9.26575 149.357 9.42981 150.107 9.75793C150.857 10.0782 151.486 10.5275 151.994 11.1056C152.509 11.6837 152.9 12.3673 153.166 13.1564C153.431 13.9376 153.564 14.7931 153.564 15.7228V15.9689C153.564 16.8907 153.431 17.7462 153.166 18.5353C152.9 19.3165 152.509 20.0001 151.994 20.5861C151.486 21.1642 150.861 21.6134 150.119 21.9337C149.376 22.254 148.525 22.4142 147.564 22.4142C146.603 22.4142 145.748 22.254 144.998 21.9337C144.255 21.6134 143.626 21.1642 143.111 20.5861C142.603 20.0001 142.216 19.3165 141.951 18.5353C141.685 17.7462 141.552 16.8907 141.552 15.9689ZM144.927 15.7228V15.9689C144.927 16.5001 144.974 16.9962 145.068 17.4572C145.162 17.9181 145.31 18.3243 145.513 18.6759C145.724 19.0197 145.998 19.2892 146.333 19.4845C146.669 19.6798 147.08 19.7775 147.564 19.7775C148.033 19.7775 148.435 19.6798 148.771 19.4845C149.107 19.2892 149.376 19.0197 149.58 18.6759C149.783 18.3243 149.931 17.9181 150.025 17.4572C150.126 16.9962 150.177 16.5001 150.177 15.9689V15.7228C150.177 15.2072 150.126 14.7228 150.025 14.2697C149.931 13.8087 149.779 13.4025 149.568 13.0509C149.365 12.6915 149.095 12.4103 148.759 12.2072C148.423 12.004 148.017 11.9025 147.541 11.9025C147.064 11.9025 146.658 12.004 146.322 12.2072C145.994 12.4103 145.724 12.6915 145.513 13.0509C145.31 13.4025 145.162 13.8087 145.068 14.2697C144.974 14.7228 144.927 15.2072 144.927 15.7228ZM159.013 12.2657V22.1798H155.638V9.50012H158.814L159.013 12.2657ZM162.833 9.41809L162.775 12.547C162.611 12.5236 162.412 12.504 162.177 12.4884C161.951 12.465 161.744 12.4532 161.556 12.4532C161.08 12.4532 160.666 12.5157 160.314 12.6407C159.97 12.7579 159.681 12.9337 159.447 13.1681C159.22 13.4025 159.048 13.6876 158.931 14.0236C158.822 14.3595 158.759 14.7423 158.744 15.172L158.064 14.9611C158.064 14.1407 158.146 13.3868 158.31 12.6993C158.474 12.004 158.712 11.3986 159.025 10.8829C159.345 10.3673 159.736 9.96887 160.197 9.68762C160.658 9.40637 161.185 9.26575 161.779 9.26575C161.966 9.26575 162.158 9.28137 162.353 9.31262C162.548 9.33606 162.708 9.37122 162.833 9.41809ZM170.029 22.4142C169.044 22.4142 168.162 22.2579 167.38 21.9454C166.599 21.6251 165.935 21.1837 165.388 20.6212C164.849 20.0587 164.435 19.4064 164.146 18.6642C163.857 17.9142 163.712 17.1173 163.712 16.2736V15.8048C163.712 14.8439 163.849 13.965 164.123 13.1681C164.396 12.3712 164.787 11.6798 165.294 11.0939C165.81 10.5079 166.435 10.0587 167.169 9.74622C167.904 9.4259 168.732 9.26575 169.654 9.26575C170.552 9.26575 171.349 9.41418 172.044 9.71106C172.74 10.0079 173.322 10.4298 173.791 10.9767C174.267 11.5236 174.626 12.1798 174.869 12.9454C175.111 13.7032 175.232 14.547 175.232 15.4767V16.8829H165.154V14.6329H171.916V14.3751C171.916 13.9064 171.83 13.4884 171.658 13.1212C171.494 12.7462 171.244 12.4493 170.908 12.2306C170.572 12.0118 170.142 11.9025 169.619 11.9025C169.173 11.9025 168.791 12.0001 168.47 12.1954C168.15 12.3907 167.888 12.6642 167.685 13.0157C167.49 13.3673 167.341 13.7814 167.24 14.2579C167.146 14.7267 167.099 15.2423 167.099 15.8048V16.2736C167.099 16.7814 167.169 17.2501 167.31 17.6798C167.458 18.1095 167.666 18.4806 167.931 18.7931C168.205 19.1056 168.533 19.3478 168.916 19.5197C169.306 19.6915 169.748 19.7775 170.24 19.7775C170.849 19.7775 171.416 19.6603 171.939 19.4259C172.47 19.1837 172.927 18.8204 173.31 18.3361L174.951 20.1173C174.685 20.5001 174.322 20.8673 173.861 21.2189C173.408 21.5704 172.861 21.8595 172.22 22.0861C171.58 22.3048 170.849 22.4142 170.029 22.4142ZM180.529 12.2657V22.1798H177.154V9.50012H180.33L180.529 12.2657ZM184.349 9.41809L184.291 12.547C184.126 12.5236 183.927 12.504 183.693 12.4884C183.466 12.465 183.259 12.4532 183.072 12.4532C182.595 12.4532 182.181 12.5157 181.83 12.6407C181.486 12.7579 181.197 12.9337 180.962 13.1681C180.736 13.4025 180.564 13.6876 180.447 14.0236C180.337 14.3595 180.275 14.7423 180.259 15.172L179.58 14.9611C179.58 14.1407 179.662 13.3868 179.826 12.6993C179.99 12.004 180.228 11.3986 180.541 10.8829C180.861 10.3673 181.251 9.96887 181.712 9.68762C182.173 9.40637 182.701 9.26575 183.294 9.26575C183.482 9.26575 183.673 9.28137 183.869 9.31262C184.064 9.33606 184.224 9.37122 184.349 9.41809Z" fill="#4D585E"/>
<path d="M14.7274 0.48645L27.3734 7.78763V22.39L14.7274 29.6912L2.08135 22.39V7.78763L14.7274 0.48645Z" fill="#4D585E"/>
</svg>
